# xmcd
#
# Track frame offsets:
# 150
# 16653
# 31878
# 48853
# 62140
# 75208
# 88695
# 98218
# 111843
# 120678
# 138153
# 148428
# 160850
#
# Disc length: 2407 seconds
#
#
# Revision: 1
# Processed by: cddbd v1.5.2PL0 Copyright (c) Steve Scherf et al.
# Submitted via: FreeRIP 2.96 
#
DISCID=a009650d
DTITLE=Howlin' Wolf - The London Howlin' Wolf Sessions
DYEAR=1971
DGENRE=Blues
TTITLE0=Rockin' Daddy
TTITLE1=I Ain't Superstitious
TTITLE2=Sittin' On Top Of The World
TTITLE3=Worried About My Baby
TTITLE4=What A Woman!
TTITLE5=Poor Boy
TTITLE6=Built For Comfort
TTITLE7=Who's Been Talking
TTITLE8=Little Red Rooster [Rehearsal]
TTITLE9=Little Red Rooster
TTITLE10=Do The Do
TTITLE11=Highway 49
TTITLE12=Wang-Dang-Doodle
EXTD=
EXTT0=
EXTT1=
EXTT2=
EXTT3=
EXTT4=
EXTT5=
EXTT6=
EXTT7=
EXTT8=
EXTT9=
EXTT10=
EXTT11=
EXTT12=
PLAYORDER=
